<?xml version="1.0" encoding="UTF-8" standalone="yes"?>
<svg version="1.2" width="512" height="512" baseProfile="tiny-ps" xmlns="http://www.w3.org/2000/svg">
  <title>bimi-svg-tiny-12-ps</title>
  <path d="M0 0 C0.94488785 -0.00705963 1.8897757 -0.01411926 2.86329651 -0.02139282 C41.96677384 -0.24733053 41.96677384 -0.24733053 58.76953125 3.203125 C60.28836914 3.50114014 60.28836914 3.50114014 61.83789062 3.80517578 C107.81931389 13.00008292 151.82359037 34.02945703 185.93359375 66.51953125 C188.28465405 68.74429492 190.67326977 70.86533513 193.14453125 72.953125 C196.38848595 75.76364943 199.18154857 78.80160067 201.94921875 82.078125 C203.17045588 83.50377521 204.42682225 84.90001185 205.71484375 86.265625 C244.64509743 127.63799792 268.278427 187.7871513 269.078125 244.46484375 C269.0933873 245.52153259 269.1086496 246.57822144 269.12437439 247.66693115 C269.40246307 271.31042258 268.95177222 293.27911609 262.76953125 316.203125 C262.28451667 318.13395404 261.80011171 320.06493634 261.31640625 321.99609375 C250.84873124 362.20107127 230.66328066 399.44851122 202.16015625 429.66015625 C200.06018273 431.89395161 198.06116203 434.17543658 196.08203125 436.515625 C193.24835614 439.77905178 190.19381287 442.59591931 186.89453125 445.3828125 C185.46888104 446.60404963 184.0726444 447.860416 182.70703125 449.1484375 C141.93119417 487.51736753 81.61127427 512.12633891 25.5390625 512.40625 C24.59417465 512.41330963 23.6492868 512.42036926 22.67576599 512.42764282 C-16.42771134 512.65358053 -16.42771134 512.65358053 -33.23046875 509.203125 C-34.24302734 509.00444824 -35.25558594 508.80577148 -36.29882812 508.60107422 C-82.28025139 499.40616708 -126.28452787 478.37679297 -160.39453125 445.88671875 C-162.74559155 443.66195508 -165.13420727 441.54091487 -167.60546875 439.453125 C-170.84942345 436.64260057 -173.64248607 433.60464933 -176.41015625 430.328125 C-177.63139338 428.90247479 -178.88775975 427.50623815 -180.17578125 426.140625 C-219.10603493 384.76825208 -242.7393645 324.6190987 -243.5390625 267.94140625 C-243.5543248 266.88471741 -243.5695871 265.82802856 -243.58531189 264.73931885 C-243.86340057 241.09582742 -243.41270972 219.12713391 -237.23046875 196.203125 C-236.74545417 194.27229596 -236.26104921 192.34131366 -235.77734375 190.41015625 C-225.30966874 150.20517873 -205.12421816 112.95773878 -176.62109375 82.74609375 C-174.52112023 80.51229839 -172.52209953 78.23081342 -170.54296875 75.890625 C-167.70929364 72.62719822 -164.65475037 69.81033069 -161.35546875 67.0234375 C-159.92981854 65.80220037 -158.5335819 64.545834 -157.16796875 63.2578125 C-116.39213167 24.88888247 -56.07221177 0.27991109 0 0 Z " fill="#FEFEFE" transform="translate(243.23046875,-0.203125)"/>
  <path d="M0 0 C0.33 0 0.66 0 1 0 C0.50745782 6.99465976 -0.66793333 13.50423182 -2.5625 20.25 C-2.96057861 21.67445435 -2.96057861 21.67445435 -3.36669922 23.12768555 C-14.552541 62.19441506 -33.66604576 97.83873637 -61.609375 127.45703125 C-63.70934852 129.69082661 -65.70836922 131.97231158 -67.6875 134.3125 C-70.52117511 137.57592678 -73.57571838 140.39279431 -76.875 143.1796875 C-78.30065021 144.40092463 -79.69688685 145.657291 -81.0625 146.9453125 C-121.83833708 185.31424253 -182.15825698 209.92321391 -238.23046875 210.203125 C-239.64780052 210.21371445 -239.64780052 210.21371445 -241.09376526 210.22451782 C-280.19724259 210.45045553 -280.19724259 210.45045553 -297 207 C-298.01255859 206.80132324 -299.02511719 206.60264648 -300.06835938 206.39794922 C-346.02480469 197.20803692 -390.06267135 176.19134887 -424.14453125 143.69921875 C-427.17011874 140.83919008 -430.29686192 138.14347971 -433.51171875 135.5 C-435.18948818 133.80901979 -435.98267334 132.13816596 -437 130 C-435.72447203 129.99576806 -434.44894405 129.99153612 -433.13476372 129.98717594 C-402.81293815 129.8863618 -372.49113415 129.78062645 -342.16934704 129.66888306 C-338.43207134 129.65511453 -334.69479548 129.64138728 -330.95751953 129.62768555 C-330.21353818 129.62495724 -329.46955684 129.62222894 -328.7030306 129.61941796 C-316.67829107 129.5754195 -304.65354248 129.5347596 -292.62878715 129.49534739 C-280.2776702 129.45479065 -267.92656996 129.41061397 -255.57547772 129.36312145 C-247.96264887 129.33396129 -240.34982104 129.30757854 -232.73697032 129.28482103 C-226.88591932 129.26702665 -221.03489466 129.24418025 -215.18386841 129.21950912 C-212.7934947 129.2102062 -210.4031141 129.2025072 -208.01272964 129.19658089 C-143.78511187 129.0325112 -83.92934024 110.0108452 -37 65 C-19.44049937 47.21916113 -6.43470009 24.05737119 0 0 Z " fill="#0D52A1" transform="translate(507,302)"/>
  <path d="M0 0 C0.94488785 -0.00705963 1.8897757 -0.01411926 2.86329651 -0.02139282 C41.96677384 -0.24733053 41.96677384 -0.24733053 58.76953125 3.203125 C60.28836914 3.50114014 60.28836914 3.50114014 61.83789062 3.80517578 C107.79433594 12.99508808 151.8322026 34.01177613 185.9140625 66.50390625 C188.93964999 69.36393492 192.06639317 72.05964529 195.28125 74.703125 C196.95901943 76.39410521 197.75220459 78.06495904 198.76953125 80.203125 C196.86730081 80.20809022 196.86730081 80.20809022 194.92664146 80.21315575 C164.73352296 80.29239979 134.54045213 80.38170397 104.34740093 80.48317661 C100.6204355 80.4956935 96.89346979 80.50812658 93.16650391 80.52050781 C92.42462104 80.52297381 91.68273818 80.5254398 90.91837402 80.52798052 C78.95077496 80.56756118 66.98316663 80.60037305 55.01554076 80.63062482 C42.70957192 80.66188473 30.40364194 80.70055456 18.09771693 80.74591506 C10.5217586 80.77361268 2.94582826 80.79572544 -4.63016669 80.81038751 C-10.46739736 80.82230814 -16.30455522 80.84460397 -22.14173889 80.87050819 C-24.51584736 80.879484 -26.88997079 80.88525041 -29.26409531 80.88733864 C-48.26935615 80.9070271 -67.3148877 81.38811603 -85.91796875 85.640625 C-86.87123047 85.84494141 -87.82449219 86.04925781 -88.80664062 86.25976562 C-94.53279623 87.509321 -100.18481992 88.9653508 -105.83081055 90.53588867 C-108.47643632 91.27151745 -111.13438874 91.95357623 -113.79296875 92.640625 C-119.13534115 94.11127808 -124.14512942 96.01220806 -129.23046875 98.203125 C-130.17188721 98.59927002 -130.17188721 98.59927002 -131.13232422 99.00341797 C-161.62691941 111.8653258 -191.06380758 130.45651265 -211.23046875 157.203125 C-211.63507324 157.73808594 -212.03967773 158.27304688 -212.45654297 158.82421875 C-224.1331636 174.37508913 -233.78324995 191.08788631 -238.23046875 210.203125 C-238.56046875 210.203125 -238.89046875 210.203125 -239.23046875 210.203125 C-238.73792657 203.20846524 -237.56253542 196.69889318 -235.66796875 189.953125 C-235.40258301 189.00348877 -235.13719727 188.05385254 -234.86376953 187.07543945 C-223.67792775 148.00870994 -204.56442299 112.36438863 -176.62109375 82.74609375 C-174.52112023 80.51229839 -172.52209953 78.23081342 -170.54296875 75.890625 C-167.70929364 72.62719822 -164.65475037 69.81033069 -161.35546875 67.0234375 C-159.92981854 65.80220037 -158.5335819 64.545834 -157.16796875 63.2578125 C-116.39213167 24.88888247 -56.07221177 0.27991109 0 0 Z " fill="#0D52A1" transform="translate(243.23046875,-0.203125)"/>
  <path d="M0 0 C3.58183842 0.01314129 7.1636642 0.00855834 10.74552 0.00629318 C16.92869797 0.00473169 23.11177986 0.01402191 29.29493368 0.03100669 C38.2343583 0.05554661 47.17373718 0.06321716 56.11319182 0.06697067 C70.62219154 0.07351185 85.13114022 0.09340914 99.64011228 0.1218785 C113.72148992 0.14947985 127.80285362 0.17068356 141.88425291 0.18340194 C143.18954984 0.1845842 143.18954984 0.1845842 144.52121641 0.18579034 C148.88740715 0.18970588 153.25359799 0.1934969 157.61978889 0.19722605 C193.75444766 0.22824917 229.88904843 0.28102074 266.0236572 0.34819686 C266.82449921 2.24493726 267.62273816 4.14277685 268.41989744 6.04106796 C268.86469953 7.09780715 269.30950162 8.15454635 269.76778257 9.24330795 C271.45804475 13.42212976 272.82454076 17.6487995 274.0861572 21.97319686 C274.4595825 23.23800888 274.4595825 23.23800888 274.84055173 24.52837265 C276.53611334 30.38686049 278.04865639 36.27577908 279.3986572 42.22319686 C279.65014524 43.31881942 279.65014524 43.31881942 279.90671384 44.43657577 C280.8097789 48.60674034 281.0236572 51.99808512 281.0236572 56.34819686 C148.0336572 56.34819686 15.0436572 56.34819686 -121.9763428 56.34819686 C-99.81786899 26.80356512 -69.61873036 6.27757634 -32.71516383 0.96865547 C-21.87512185 -0.36119157 -10.90154052 -0.05032619 0 0 Z " fill="#0E53A1" transform="translate(227.97634279727936,159.6518031358719)"/>
  <path d="M0 0 C132.99 0 265.98 0 403 0 C381.62756465 28.49658046 352.02759504 49.2828617 316.38509196 55.00976211 C304.66376618 56.68240606 292.83680922 56.40273144 281.0236572 56.34819686 C277.44181879 56.33505557 273.859993 56.33963852 270.27813721 56.34190369 C264.09495923 56.34346518 257.91187734 56.33417495 251.72872353 56.31719017 C242.78929891 56.29265026 233.84992003 56.2849797 224.91046538 56.2812262 C210.40146566 56.27468502 195.89251698 56.25478772 181.38354492 56.22631836 C167.30216728 56.19871701 153.22080358 56.1775133 139.1394043 56.16479492 C138.26920634 56.16400675 137.39900838 56.16321858 136.50244079 56.16240653 C132.13625005 56.15849098 127.77005922 56.15469996 123.40386832 56.15097082 C87.26920954 56.1199477 51.13460877 56.06717612 15 56 C14.19915799 54.1032596 13.40091904 52.20542002 12.60375977 50.30712891 C12.15895767 49.25038971 11.71415558 48.19365051 11.25587463 47.10488892 C9.56561245 42.92606711 8.19911644 38.69939736 6.9375 34.375 C6.6885498 33.53179199 6.43959961 32.68858398 6.18310547 31.81982422 C4.48754386 25.96133637 2.97500082 20.07241778 1.625 14.125 C1.45734131 13.39458496 1.28968262 12.66416992 1.11694336 11.91162109 C0.2138783 7.74145653 0 4.35011174 0 0 Z " fill="#0E53A1" transform="translate(3,296)"/>
  <path d="M0 0 C0.33 0 0.66 0 1 0 C0.85795259 1.58367747 0.71119847 3.16693318 0.5625 4.75 C0.48128906 5.63171875 0.40007812 6.5134375 0.31640625 7.421875 C-0.24434389 11.99095023 -0.24434389 11.99095023 -1 14 C-1.99 14.33 -2.98 14.66 -4 15 C-3.34728444 11.48294042 -2.48606976 8.10674923 -1.4375 4.6875 C-1.16808594 3.80449219 -0.89867187 2.92148437 -0.62109375 2.01171875 C-0.41613281 1.34785156 -0.21117187 0.68398438 0 0 Z " fill="#3567AD" transform="translate(507,302)"/>
</svg>